<?xml version="1.0" standalone="no"?>
<!DOCTYPE svg PUBLIC "-//W3C//DTD SVG 20010904//EN"
 "http://www.w3.org/TR/2001/REC-SVG-20010904/DTD/svg10.dtd">
<svg version="1.0" xmlns="http://www.w3.org/2000/svg"
 width="512.000000pt" height="512.000000pt" viewBox="0 0 512.000000 512.000000"
 preserveAspectRatio="xMidYMid meet">
<metadata>
Created by potrace 1.11, written by Peter Selinger 2001-2013
</metadata>
<g transform="translate(0.000000,512.000000) scale(0.100000,-0.100000)"
fill="#000000" stroke="none">
<path d="M2578 5116 c-1 -2 -32 -6 -68 -9 -36 -4 -74 -8 -85 -10 -21 -5 -113
-20 -130 -22 -5 -1 -28 -7 -50 -13 -22 -6 -49 -13 -60 -15 -11 -2 -27 -6 -35
-9 -8 -3 -42 -13 -75 -22 -33 -9 -89 -28 -125 -42 -36 -14 -74 -29 -85 -34
-11 -4 -48 -22 -82 -39 -35 -17 -63 -28 -63 -23 0 4 -4 2 -8 -4 -4 -5 -38 -27
-77 -48 -81 -44 -248 -155 -253 -167 -2 -5 -8 -9 -13 -9 -29 0 -338 -298 -431
-416 -58 -73 -178 -241 -178 -249 0 -3 -18 -33 -39 -68 -57 -93 -147 -282
-192 -401 -136 -364 -193 -771 -165 -1166 7 -93 13 -112 38 -116 7 -1 38 -9
69 -18 31 -9 65 -18 75 -20 11 -3 66 -15 124 -29 58 -14 112 -25 120 -26 22
-1 65 -8 65 -11 0 -1 16 -4 35 -6 60 -6 123 -14 150 -19 128 -25 729 -25 769
-1 6 4 14 5 19 2 4 -2 30 0 57 5 28 5 68 11 90 14 82 9 189 32 320 66 61 17
117 32 125 34 8 2 15 4 15 5 0 1 8 3 17 5 24 4 91 26 103 34 11 6 32 12 53 13
6 1 12 5 12 10 0 4 3 7 8 6 4 -1 21 4 37 11 17 7 35 14 40 15 6 1 26 9 46 18
20 9 45 19 57 22 12 4 22 12 22 18 0 6 3 9 6 5 4 -3 21 1 38 10 17 10 33 18
36 18 20 4 230 119 325 178 110 69 262 176 305 214 8 7 44 37 79 65 98 80 337
321 425 428 43 52 87 106 99 120 44 52 191 275 256 387 70 123 181 345 181
364 0 44 -293 347 -444 459 -26 19 -69 52 -95 73 -27 20 -54 37 -60 37 -6 0
-11 4 -11 9 0 5 -8 11 -17 15 -10 3 -34 16 -53 28 -71 44 -173 98 -186 98 -7
0 -14 4 -16 8 -2 7 -61 31 -243 102 -49 19 -95 32 -122 33 -7 0 -13 3 -13 7 0
4 -6 7 -12 8 -7 0 -24 3 -38 6 -14 3 -34 8 -45 10 -11 2 -40 9 -65 15 -25 5
-65 12 -90 15 -25 3 -56 8 -70 12 -26 6 -415 15 -422 10z"/>
<path d="M4844 4929 c-3 -6 -2 -15 3 -20 5 -5 9 -1 9 11 0 23 -2 24 -12 9z"/>
<path d="M4842 4870 c0 -14 2 -19 5 -12 2 6 2 18 0 25 -3 6 -5 1 -5 -13z"/>
<path d="M4836 4824 c-3 -9 -6 -28 -6 -43 0 -14 -14 -107 -30 -206 -49 -292
-129 -573 -238 -840 -53 -131 -182 -393 -240 -488 -23 -37 -42 -71 -42 -76 0
-5 -3 -11 -7 -13 -5 -1 -43 -55 -85 -118 -77 -114 -186 -256 -276 -359 -46
-53 -248 -256 -294 -296 -31 -28 -140 -118 -156 -130 -7 -5 -21 -17 -31 -25
-18 -16 -42 -33 -131 -95 -30 -21 -58 -42 -61 -47 -3 -6 -10 -10 -15 -11 -5 0
-38 -19 -74 -42 -108 -68 -157 -95 -164 -88 -3 3 -6 1 -6 -5 0 -19 -266 -145
-440 -208 -58 -21 -107 -41 -110 -44 -6 -6 -22 -10 -55 -12 -14 -1 -25 -6 -25
-11 0 -5 -7 -7 -15 -4 -8 4 -17 2 -20 -2 -4 -7 -74 -25 -83 -22 -1 1 -18 -5
-37 -13 -19 -8 -35 -13 -35 -11 0 3 -12 0 -26 -6 -15 -5 -42 -12 -62 -15 -19
-3 -44 -8 -56 -10 -11 -2 -37 -7 -56 -10 -39 -6 -63 -10 -100 -18 -13 -3 -52
-9 -85 -12 -92 -10 -110 -12 -110 -14 0 -1 -32 -3 -71 -5 -40 -1 -77 -6 -84
-10 -9 -6 -11 -4 -5 5 6 9 4 11 -5 5 -18 -11 -290 -13 -296 -3 -3 5 -13 4 -23
-2 -10 -5 -21 -7 -24 -3 -4 3 -37 7 -74 9 -37 2 -86 5 -108 8 -69 9 -149 17
-165 18 -8 0 -21 6 -29 12 -12 9 -13 8 -6 -3 6 -11 5 -12 -6 -5 -8 4 -20 9
-27 10 -95 15 -170 29 -230 45 -40 11 -80 20 -90 22 -9 1 -23 6 -30 10 -6 5
-12 6 -12 3 0 -3 -25 4 -55 14 -30 10 -55 16 -55 13 0 -3 -6 -1 -13 5 -7 6
-24 13 -37 15 -14 2 -38 9 -53 15 -16 7 -32 12 -37 12 -9 0 -67 23 -102 41
-10 5 -19 5 -23 0 -3 -5 -2 -11 2 -13 9 -3 24 -29 80 -130 l36 -66 96 -31 c53
-17 108 -32 124 -33 15 -1 27 -6 27 -10 0 -4 8 -8 18 -8 9 0 53 -9 96 -20 44
-11 93 -22 110 -25 17 -2 45 -7 61 -11 17 -3 41 -8 55 -9 14 -2 25 -4 25 -5 0
-3 79 -11 127 -13 27 -1 48 -5 48 -8 0 -4 10 -7 23 -6 46 1 198 -12 207 -18 6
-3 10 -1 10 6 0 8 4 8 13 2 14 -11 57 -11 74 0 6 4 14 4 17 -1 6 -10 77 -9 93
1 6 4 15 2 19 -4 4 -8 9 -7 15 2 5 8 9 9 9 3 0 -11 34 -10 160 1 41 4 92 8
113 8 20 1 37 4 37 7 0 3 20 5 45 5 25 0 45 3 45 6 0 3 16 5 36 4 19 -1 37 2
40 7 3 5 9 6 13 4 3 -2 38 2 76 11 39 8 81 17 95 19 14 3 33 7 42 10 9 3 25 7
35 9 112 24 376 108 401 128 6 5 12 7 12 4 0 -16 359 154 499 236 85 50 261
165 271 176 3 4 16 14 30 23 24 14 101 74 190 147 163 133 391 374 531 561
134 180 184 256 274 414 145 257 254 512 354 831 18 55 89 349 95 390 3 22 14
94 25 160 25 158 44 315 37 315 -2 0 -7 -7 -10 -16z"/>
<path d="M4817 3784 c-3 -10 -9 -39 -12 -64 -4 -24 -8 -47 -10 -50 -2 -3 -6
-21 -9 -40 -28 -182 -149 -567 -256 -820 -57 -135 -212 -445 -236 -471 -8 -8
-14 -19 -14 -23 0 -9 -92 -153 -119 -186 -12 -14 -21 -29 -21 -33 0 -4 -5 -13
-10 -20 -6 -7 -40 -52 -77 -102 -73 -99 -133 -173 -185 -231 -62 -70 -203
-217 -247 -258 -24 -23 -58 -56 -76 -73 -18 -18 -35 -33 -39 -33 -4 0 -17 -10
-29 -23 -12 -12 -44 -40 -72 -62 -27 -22 -52 -42 -55 -45 -3 -3 -21 -17 -40
-30 -19 -14 -39 -28 -45 -32 -46 -37 -105 -78 -105 -74 0 3 -10 -3 -23 -14
-25 -21 -165 -110 -175 -110 -3 0 -13 -6 -21 -14 -15 -13 -292 -159 -316 -166
-5 -2 -37 -15 -70 -30 -33 -14 -89 -37 -125 -49 -36 -13 -78 -29 -95 -36 -28
-12 -182 -61 -222 -70 -10 -2 -60 -16 -111 -29 -51 -14 -109 -28 -130 -31 -21
-3 -49 -8 -62 -10 -26 -5 -67 -13 -110 -20 -34 -6 -118 -17 -155 -20 -16 -2
-30 -4 -30 -5 0 -1 -20 -3 -45 -4 -25 -1 -51 -5 -59 -10 -8 -5 -16 -4 -21 4
-5 9 -9 9 -14 1 -4 -6 -11 -9 -16 -6 -5 3 -11 1 -15 -4 -3 -6 4 -15 16 -21 11
-7 44 -29 72 -51 29 -21 58 -39 65 -39 6 0 12 -4 12 -10 0 -5 15 -17 32 -25
62 -30 78 -40 78 -47 0 -5 7 -8 15 -8 8 0 15 -5 15 -12 0 -6 3 -8 6 -5 7 7
104 -41 115 -56 3 -5 8 -7 11 -5 2 1 20 -4 39 -14 29 -14 75 -32 184 -74 11
-4 23 -6 28 -6 4 1 7 -2 7 -6 0 -4 9 -9 20 -10 44 -4 50 -6 50 -14 0 -5 4 -7
8 -4 5 3 31 -2 58 -10 64 -19 104 -27 132 -27 12 1 22 -2 22 -6 0 -4 6 -8 13
-8 13 -1 80 -10 161 -23 54 -8 436 -5 506 5 46 6 81 12 90 15 3 1 8 2 12 1 4
0 36 6 70 15 35 8 72 17 83 19 38 8 60 13 60 16 0 1 18 5 60 11 11 2 22 5 25
8 3 3 59 26 125 50 125 46 283 122 378 183 30 20 58 33 61 30 3 -4 6 -2 6 4 0
5 33 32 73 58 39 27 74 52 77 55 3 3 28 23 55 45 76 60 284 270 354 358 115
144 257 371 323 517 9 19 28 62 43 95 28 61 120 331 129 376 2 13 11 56 20 94
10 39 19 86 22 105 3 19 7 42 9 50 3 8 7 38 10 65 4 28 10 77 14 110 9 62 7
524 -2 560 -2 11 -8 47 -13 80 -4 33 -8 62 -9 65 -1 3 -5 25 -9 50 -5 25 -10
52 -11 60 -2 8 -8 33 -14 55 -5 22 -13 55 -16 73 -10 57 -91 294 -136 397 -72
165 -76 171 -82 149z"/>
</g>
</svg>
